<?xml version="1.0"?>
<svg xmlns="http://www.w3.org/2000/svg" height="512px" viewBox="0 0 480 480.14241" width="512px" class=""><g><path d="m64.070312 216.046875h128c8.835938 0 16 7.164063 16 16s-7.164062 16-16 16h-128c-8.835937 0-16-7.164063-16-16s7.164063-16 16-16zm0 0" fill="#a8dba8" data-original="#A8DBA8" class="" data-old_color="#a8dba8" style="fill:#2A7C4F"/><path d="m152.070312 424.046875c-53.019531 0-96-42.980469-96-96 0-35.347656 28.65625-64 64-64h89.359376c-6.59375-6.140625-13.867188-11.507813-21.679688-16h-119.359375c-46.902344 26.816406-70.101563 81.671875-56.667969 134.007813 13.429688 52.332031 60.179688 89.234374 114.203125 90.148437 54.019531.914063 101.992188-34.386719 117.183594-86.238281-23.996094 24.414062-56.808594 38.136718-91.039063 38.082031zm0 0" fill="#cff09e" data-original="#CFF09E" class="active-path" data-old_color="#cff09e" style="fill:#2A7C4F"/><path d="m128.070312 344.046875c-8.835937 0-16-7.164063-16-16s7.164063-16 16-16c8.835938 0 16 7.164063 16 16 0 4.417969 3.582032 8 8 8 4.417969 0 8-3.582031 8-8-.046874-14.554687-9.90625-27.242187-24-30.878906v-17.121094c0-4.417969-3.582031-8-8-8-4.417968 0-8 3.582031-8 8v17.121094c-15.40625 4.179687-25.375 19.082031-23.359374 34.917969 2.015624 15.839843 15.394531 27.769531 31.359374 27.960937 8.835938 0 16 7.164063 16 16s-7.164062 16-16 16c-8.835937 0-16-7.164063-16-16 0-4.417969-3.582031-8-8-8-4.417968 0-8 3.582031-8 8 .046876 14.554687 9.910157 27.242187 24 30.878906v17.121094c0 4.417969 3.582032 8 8 8 4.417969 0 8-3.582031 8-8v-17.121094c15.410157-4.183593 25.375-19.082031 23.363282-34.921875-2.015625-15.835937-15.398438-27.765625-31.363282-27.957031zm0 0" fill="#a8dba8" data-original="#A8DBA8" class="" data-old_color="#a8dba8" style="fill:#2A7C4F"/><path d="m120.070312 200.046875c-26.507812 0-48-21.492187-48-48v-14.558594c-9.566406 3.378907-15.96875 12.410157-16 22.558594v24c0 17.671875 14.328126 32 32 32h80c11.394532-.039063 21.90625-6.132813 27.601563-16zm0 0" fill="#cff09e" data-original="#CFF09E" class="active-path" data-old_color="#cff09e" style="fill:#2A7C4F"/><path d="m296.070312 424.046875v-104h32v104" fill="#79bd9a" data-original="#79BD9A" class="" data-old_color="#79bd9a" style="fill:#2A7C4F"/><path d="m368.070312 424.046875v-136h32v136" fill="#a8dba8" data-original="#A8DBA8" class="" data-old_color="#a8dba8" style="fill:#2A7C4F"/><path d="m440.070312 424.046875v-192h32v192" fill="#79bd9a" data-original="#79BD9A" class="" data-old_color="#79bd9a" style="fill:#2A7C4F"/><path d="m344.070312 152.046875v-64h32l-80-80-80 80h32v128" fill="#cff09e" data-original="#CFF09E" class="active-path" data-old_color="#cff09e" style="fill:#2A7C4F"/><g fill="#3b8686"><path d="m128.070312 312.046875c8.835938 0 16 7.164063 16 16 0 4.417969 3.582032 8 8 8 4.417969 0 8-3.582031 8-8-.011718-14.582031-9.878906-27.316406-24-30.960937v-17.039063c0-4.417969-3.582031-8-8-8-4.417968 0-8 3.582031-8 8v17.039063c-15.554687 4.066406-25.679687 19.042968-23.652343 34.996093 2.027343 15.949219 15.574219 27.917969 31.652343 27.964844 8.835938 0 16 7.164063 16 16s-7.164062 16-16 16c-8.835937 0-16-7.164063-16-16 0-4.417969-3.582031-8-8-8-4.417968 0-8 3.582031-8 8 .011719 14.582031 9.882813 27.3125 24 30.960937v17.039063c0 4.417969 3.582032 8 8 8 4.417969 0 8-3.582031 8-8v-17.039063c15.558594-4.066406 25.679688-19.042968 23.652344-34.996093-2.023437-15.949219-15.574218-27.917969-31.652344-27.964844-8.835937 0-16-7.164063-16-16s7.164063-16 16-16zm0 0" data-original="#000000" class="" style="fill:#000000"/><path d="m436.949219 197.328125c-.882813 4.328125 1.910156 8.554687 6.242187 9.4375h1.601563c3.886719.070313 7.261719-2.664063 8-6.480469l11.277343-56.238281s0 0 0-.558594v-2.320312c.039063-.132813.039063-.269531 0-.402344v-1.277344c-.164062-.425781-.378906-.828125-.640624-1.203125h-8.957032l-56.5625 11.28125c-4.417968.882813-7.28125 5.183594-6.398437 9.601563.882812 4.417969 5.179687 7.28125 9.597656 6.398437l30.960937-10.160156-83.519531 83.121094-28.480469-28.320313c-3.121093-3.101562-8.160156-3.101562-11.277343 0l-73.121094 73.121094c-7.90625-12.226563-17.804687-23.042969-29.28125-32 6.097656-4.535156 9.6875-11.683594 9.679687-19.28125-.015624-10.5-6.855468-19.765625-16.878906-22.878906 5.742188-7.113281 8.878906-15.980469 8.878906-25.121094v-24c-.019531-13.300781-8.261718-25.203125-20.707031-29.894531-12.445312-4.695313-26.496093-1.199219-35.292969 8.773437-6.074218-6.886719-14.816406-10.832031-24-10.832031-9.183593 0-17.925781 3.945312-24 10.832031-8.796874-9.972656-22.847656-13.46875-35.292968-8.773437-12.441406 4.691406-20.6875 16.59375-20.707032 29.894531v24c.003907 9.140625 3.136719 18.007813 8.878907 25.121094-10.023438 3.113281-16.859375 12.378906-16.878907 22.878906.011719 7.46875 3.503907 14.507813 9.441407 19.039063-47.3125 36.78125-62.773438 101.46875-37.207031 155.667968 25.570312 54.199219 85.320312 83.40625 143.796874 70.28125 58.472657-13.121094 100.015626-65.058594 99.96875-124.988281.007813-18.730469-4.144531-37.230469-12.160156-54.160156l70.722656-70.71875 28.316407 28.320312c3.121093 3.101563 8.160156 3.101563 11.28125 0l88.800781-88.800781zm-372.878907-37.28125c0-8.835937 7.164063-16 16-16 8.835938 0 16 7.164063 16 16 0 4.417969 3.582032 8 8 8 4.417969 0 8-3.582031 8-8 0-8.835937 7.164063-16 16-16 8.835938 0 16 7.164063 16 16 0 4.417969 3.582032 8 8 8 4.417969 0 8-3.582031 8-8 0-8.835937 7.164063-16 16-16 8.835938 0 16 7.164063 16 16v24c0 13.253906-10.746093 24-24 24h-80c-13.253906 0-24-10.746094-24-24zm0 64h128c4.417969 0 8 3.582031 8 8s-3.582031 8-8 8h-128c-4.417968 0-8-3.582031-8-8s3.582032-8 8-8zm176 128c.050782 54.144531-38.640624 100.570313-91.90625 110.285156-53.265624 9.710938-105.851562-20.070312-124.917968-70.742187-19.066406-50.675782.847656-107.738282 47.304687-135.542969h115.039063c15.828125 9.597656 29.046875 22.953125 38.480468 38.878906l-11.519531 11.441407c-1.515625 1.5-2.367187 3.546874-2.367187 5.679687s.851562 4.175781 2.367187 5.679687c1.511719 1.496094 3.554688 2.332032 5.679688 2.320313 2.128906.011719 4.171875-.824219 5.679687-2.320313l8-8c5.457032 13.4375 8.230469 27.816407 8.160156 42.320313zm0 0" data-original="#000000" class="" style="fill:#000000"/><path d="m328.070312 312.046875h-32c-4.417968 0-8 3.582031-8 8v104c0 4.417969 3.582032 8 8 8 4.417969 0 8-3.582031 8-8v-96h16v96c0 4.417969 3.582032 8 8 8 4.417969 0 8-3.582031 8-8v-104c0-4.417969-3.582031-8-8-8zm0 0" data-original="#000000" class="" style="fill:#000000"/><path d="m400.070312 280.046875h-32c-4.417968 0-8 3.582031-8 8v136c0 4.417969 3.582032 8 8 8 4.417969 0 8-3.582031 8-8v-128h16v128c0 4.417969 3.582032 8 8 8 4.417969 0 8-3.582031 8-8v-136c0-4.417969-3.582031-8-8-8zm0 0" data-original="#000000" class="" style="fill:#000000"/><path d="m472.070312 224.046875h-32c-4.417968 0-8 3.582031-8 8v192c0 4.417969 3.582032 8 8 8 4.417969 0 8-3.582031 8-8v-184h16v184c0 4.417969 3.582032 8 8 8 4.417969 0 8-3.582031 8-8v-192c0-4.417969-3.582031-8-8-8zm0 0" data-original="#000000" class="" style="fill:#000000"/><path d="m216.070312 96.046875h24v120c0 4.417969 3.582032 8 8 8 4.417969 0 8-3.582031 8-8v-128c0-4.417969-3.582031-8-8-8h-12.71875l60.71875-60.71875 60.722657 60.71875h-12.722657c-4.417968 0-8 3.582031-8 8v64c0 4.417969 3.582032 8 8 8 4.417969 0 8-3.582031 8-8v-56h24c3.230469-.015625 6.132813-1.972656 7.359376-4.960937 1.253906-2.980469.589843-6.417969-1.679688-8.71875l-80-80c-1.5-1.515626-3.546875-2.367188-5.679688-2.367188-2.132812 0-4.175781.851562-5.679687 2.367188l-80 80c-2.269531 2.300781-2.933594 5.738281-1.679687 8.71875 1.226562 2.988281 4.128906 4.945312 7.359374 4.960937zm0 0" data-original="#000000" class="" style="fill:#000000"/><path d="m272.070312 112.046875v72c0 4.417969 3.582032 8 8 8 4.417969 0 8-3.582031 8-8v-72c0-4.417969-3.582031-8-8-8-4.417968 0-8 3.582031-8 8zm0 0" data-original="#000000" class="" style="fill:#000000"/><path d="m304.070312 96.046875v48c0 4.417969 3.582032 8 8 8 4.417969 0 8-3.582031 8-8v-48c0-4.417969-3.582031-8-8-8-4.417968 0-8 3.582031-8 8zm0 0" data-original="#000000" class="" style="fill:#000000"/></g></g> </svg>
