<?xml version="1.0"?>
<svg xmlns="http://www.w3.org/2000/svg" height="512px" viewBox="0 0 480 480.06742" width="512px" class=""><g><path d="m8.035156 8h464v32h-464zm0 0" fill="#79bd9a" data-original="#79BD9A" class="active-path" data-old_color="#79bd9a" style="fill:#2A7C4F"/><path d="m8.035156 328h464v32h-464zm0 0" fill="#79bd9a" data-original="#79BD9A" class="active-path" data-old_color="#79bd9a" style="fill:#2A7C4F"/><path d="m448.035156 56v-16h-416v288h416v-64h-192c-70.695312 0-128-57.308594-128-128v-80zm0 0" fill="#cff09e" data-original="#CFF09E" class=""/><path d="m256.035156 456c0 8.835938-7.164062 16-16 16-8.839844 0-16-7.164062-16-16s7.160156-16 16-16c8.835938 0 16 7.164062 16 16zm0 0" fill="#79bd9a" data-original="#79BD9A" class="active-path" data-old_color="#79bd9a" style="fill:#2A7C4F"/><path d="m344.035156 160h48v128h-48zm0 0" fill="#a8dba8" data-original="#A8DBA8" class="" data-old_color="#a8dba8" style="fill:#2A7C4F"/><path d="m256.035156 184h48v104h-48zm0 0" fill="#a8dba8" data-original="#A8DBA8" class="" data-old_color="#a8dba8" style="fill:#2A7C4F"/><path d="m168.035156 208h48v80h-48zm0 0" fill="#a8dba8" data-original="#A8DBA8" class="" data-old_color="#a8dba8" style="fill:#2A7C4F"/><path d="m80.035156 240h48v48h-48zm0 0" fill="#a8dba8" data-original="#A8DBA8" class="" data-old_color="#a8dba8" style="fill:#2A7C4F"/><path d="m112.035156 88c0 8.835938-7.164062 16-16 16-8.839844 0-16-7.164062-16-16s7.160156-16 16-16c8.835938 0 16 7.164062 16 16zm0 0" fill="#a8dba8" data-original="#A8DBA8" class="" data-old_color="#a8dba8" style="fill:#2A7C4F"/><g fill="#3b8686"><path d="m472.035156 48c4.417969 0 8-3.582031 8-8v-32c0-4.417969-3.582031-8-8-8h-464c-4.417968 0-7.9999998 3.582031-7.9999998 8v32c0 4.417969 3.5820318 8 7.9999998 8h16v272h-16c-4.417968 0-7.9999998 3.582031-7.9999998 8v32c0 4.417969 3.5820318 8 7.9999998 8h224v65.441406c-11.023437 3.894532-17.632812 15.164063-15.65625 26.683594 1.976563 11.519531 11.964844 19.941406 23.65625 19.941406 11.6875 0 21.675782-8.421875 23.652344-19.941406s-4.632812-22.789062-15.652344-26.683594v-65.441406h224c4.417969 0 8-3.582031 8-8v-32c0-4.417969-3.582031-8-8-8h-16v-272zm-232 416c-4.417968 0-8-3.582031-8-8s3.582032-8 8-8c4.417969 0 8 3.582031 8 8s-3.582031 8-8 8zm-224-448h448v16h-448zm448 336h-448v-16h448zm-24-32h-400v-272h400zm0 0" data-original="#000000" class=""/><path d="m336.035156 160v128c0 4.417969 3.582032 8 8 8h48c4.417969 0 8-3.582031 8-8v-128c0-4.417969-3.582031-8-8-8h-48c-4.417968 0-8 3.582031-8 8zm16 8h32v112h-32zm0 0" data-original="#000000" class=""/><path d="m304.035156 176h-48c-4.417968 0-8 3.582031-8 8v104c0 4.417969 3.582032 8 8 8h48c4.417969 0 8-3.582031 8-8v-104c0-4.417969-3.582031-8-8-8zm-8 104h-32v-88h32zm0 0" data-original="#000000" class=""/><path d="m216.035156 200h-48c-4.417968 0-8 3.582031-8 8v80c0 4.417969 3.582032 8 8 8h48c4.417969 0 8-3.582031 8-8v-80c0-4.417969-3.582031-8-8-8zm-8 80h-32v-64h32zm0 0" data-original="#000000" class=""/><path d="m80.035156 296h48c4.417969 0 8-3.582031 8-8v-48c0-4.417969-3.582031-8-8-8h-48c-4.417968 0-8 3.582031-8 8v48c0 4.417969 3.582032 8 8 8zm8-48h32v32h-32zm0 0" data-original="#000000" class=""/><path d="m184.035156 136c-1.253906.007812-2.488281.308594-3.601562.878906l-80 40c-3.921875 1.996094-5.496094 6.789063-3.519532 10.722656 1.355469 2.6875 4.105469 4.390626 7.121094 4.398438 1.253906.015625 2.492188-.289062 3.597656-.878906l78.320313-39.121094h118.082031c2.125.011719 4.167969-.824219 5.679688-2.320312l58.320312-58.398438v12.71875c0 4.417969 3.582032 8 8 8 4.417969 0 8-3.582031 8-8v-32c-.015625-1.046875-.230468-2.078125-.640625-3.039062-.8125-1.957032-2.367187-3.507813-4.320312-4.320313-.960938-.410156-1.996094-.628906-3.039063-.640625h-32c-4.417968 0-8 3.582031-8 8s3.582032 8 8 8h12.71875l-56 56zm0 0" data-original="#000000" class=""/><path d="m96.035156 112c13.253906 0 24-10.746094 24-24s-10.746094-24-24-24c-13.257812 0-24 10.746094-24 24s10.742188 24 24 24zm0-32c4.417969 0 8 3.582031 8 8s-3.582031 8-8 8c-4.417968 0-8-3.582031-8-8s3.582032-8 8-8zm0 0" data-original="#000000" class=""/><path d="m152.035156 88c0 4.417969-3.582031 8-8 8-4.417968 0-8-3.582031-8-8s3.582032-8 8-8c4.417969 0 8 3.582031 8 8zm0 0" data-original="#000000" class=""/><path d="m184.035156 88c0 4.417969-3.582031 8-8 8-4.417968 0-8-3.582031-8-8s3.582032-8 8-8c4.417969 0 8 3.582031 8 8zm0 0" data-original="#000000" class=""/></g></g> </svg>
