<?xml version="1.0"?>
<svg xmlns="http://www.w3.org/2000/svg" height="512px" viewBox="-40 0 480 480" width="512px" class=""><g transform="matrix(1 0 0 1 0 0)"><path d="m8 8h384v64h-384zm0 0" fill="#a8dba8" data-original="#A8DBA8" class="" style="fill:#2A7C4F" data-old_color="#a8dba8"/><path d="m184 192v-120h-176v280h384v-64h-112c-53.019531 0-96-42.980469-96-96zm0 0" fill="#cff09e" data-original="#CFF09E"/><path d="m40 104h72v32h-72zm0 0" fill="#a8dba8" data-original="#A8DBA8" class="" style="fill:#2A7C4F" data-old_color="#a8dba8"/><path d="m48 264h96c0 26.507812-21.492188 48-48 48s-48-21.492188-48-48zm0 0" fill="#a8dba8" data-original="#A8DBA8" class="" style="fill:#2A7C4F" data-old_color="#a8dba8"/><path d="m200 144c8.835938 0 16 7.164062 16 16v232h-32v-232c0-8.835938 7.164062-16 16-16zm0 0" fill="#a8dba8" data-original="#A8DBA8" class="" style="fill:#2A7C4F" data-old_color="#a8dba8"/><path d="m176 392h48c8.835938 0 16 7.164062 16 16v24h-80v-24c0-8.835938 7.164062-16 16-16zm0 0" fill="#79bd9a" data-original="#79BD9A" class="active-path" data-old_color="#79bd9a" style="fill:#2A7C4F"/><path d="m120 432h160c8.835938 0 16 7.164062 16 16v24h-192v-24c0-8.835938 7.164062-16 16-16zm0 0" fill="#79bd9a" data-original="#79BD9A" class="active-path" data-old_color="#79bd9a" style="fill:#2A7C4F"/><path d="m256 264h96c0 26.507812-21.492188 48-48 48s-48-21.492188-48-48zm0 0" fill="#a8dba8" data-original="#A8DBA8" class="" style="fill:#2A7C4F" data-old_color="#a8dba8"/><g fill="#3b8686"><path d="m392 0h-384c-4.417969 0-8 3.582031-8 8v344c0 4.417969 3.582031 8 8 8h168v24c-13.253906 0-24 10.746094-24 24v16h-32c-13.253906 0-24 10.746094-24 24v24c0 4.417969 3.582031 8 8 8h192c4.417969 0 8-3.582031 8-8v-24c0-13.253906-10.746094-24-24-24h-32v-16c0-13.253906-10.746094-24-24-24v-24h168c4.417969 0 8-3.582031 8-8v-344c0-4.417969-3.582031-8-8-8zm-376 16h368v48h-368zm272 432v16h-176v-16c0-4.417969 3.582031-8 8-8h160c4.417969 0 8 3.582031 8 8zm-56-40v16h-64v-16c0-4.417969 3.582031-8 8-8h48c4.417969 0 8 3.582031 8 8zm-40-24v-192h16v192zm16-208h-16v-16c0-4.417969 3.582031-8 8-8s8 3.582031 8 8zm176 168h-160v-152h67.039062l-34.160156 68.398438c-.007812.1875-.007812.375 0 .5625-.542968.921874-.84375 1.96875-.878906 3.039062v8c0 26.507812 21.492188 48 48 48s48-21.492188 48-48v-8c-.003906-.824219-.167969-1.636719-.480469-2.398438.011719-.1875.011719-.375 0-.5625l-34.558593-69.039062h27.039062c4.417969 0 8-3.582031 8-8s-3.582031-8-8-8h-120v-16c0-13.253906-10.746094-24-24-24s-24 10.746094-24 24v16h-120c-4.417969 0-8 3.582031-8 8s3.582031 8 8 8h27.039062l-34.160156 68.398438c-.007812.1875-.007812.375 0 .5625-.542968.921874-.84375 1.96875-.878906 3.039062v8c0 26.507812 21.492188 48 48 48s48-21.492188 48-48v-8c-.003906-.824219-.167969-1.636719-.480469-2.398438.011719-.1875.011719-.375 0-.5625l-34.558593-69.039062h67.039062v152h-160v-264h368zm-48-72c0 17.671875-14.328125 32-32 32s-32-14.328125-32-32zm-59.039062-16 27.039062-54.078125 27.039062 54.078125zm-148.960938 16c0 17.671875-14.328125 32-32 32s-32-14.328125-32-32zm-59.039062-16 27.039062-54.078125 27.039062 54.078125zm0 0" data-original="#000000" class="" style="fill:#000000"/><path d="m48 40c0 4.417969-3.582031 8-8 8s-8-3.582031-8-8 3.582031-8 8-8 8 3.582031 8 8zm0 0" data-original="#000000" class="" style="fill:#000000"/><path d="m80 40c0 4.417969-3.582031 8-8 8s-8-3.582031-8-8 3.582031-8 8-8 8 3.582031 8 8zm0 0" data-original="#000000" class="" style="fill:#000000"/><path d="m112 40c0 4.417969-3.582031 8-8 8s-8-3.582031-8-8 3.582031-8 8-8 8 3.582031 8 8zm0 0" data-original="#000000" class="" style="fill:#000000"/><path d="m352 32h-96c-4.417969 0-8 3.582031-8 8s3.582031 8 8 8h96c4.417969 0 8-3.582031 8-8s-3.582031-8-8-8zm0 0" data-original="#000000" class="" style="fill:#000000"/><path d="m40 144h72c4.417969 0 8-3.582031 8-8v-32c0-4.417969-3.582031-8-8-8h-72c-4.417969 0-8 3.582031-8 8v32c0 4.417969 3.582031 8 8 8zm8-32h56v16h-56zm0 0" data-original="#000000" class="" style="fill:#000000"/><path d="m296 112h56c4.417969 0 8-3.582031 8-8s-3.582031-8-8-8h-56c-4.417969 0-8 3.582031-8 8s3.582031 8 8 8zm0 0" data-original="#000000" class="" style="fill:#000000"/><path d="m352 128h-32c-4.417969 0-8 3.582031-8 8s3.582031 8 8 8h32c4.417969 0 8-3.582031 8-8s-3.582031-8-8-8zm0 0" data-original="#000000" class="" style="fill:#000000"/></g></g> </svg>
